<svg xmlns="http://www.w3.org/2000/svg" viewBox="0 0 64 64">
  <!-- Left sword -->
  <g transform="rotate(-45 32 32)">
    <polygon points="30,2 34,2 32,0" fill="#e0e0e0"/>
    <rect x="30" y="2" width="4" height="34" rx="0.5" fill="#b0b8c4"/>
    <rect x="31" y="2" width="2" height="34" fill="#dce3ec"/>
    <rect x="23" y="35" width="18" height="4" rx="2" fill="#d4a017"/>
    <rect x="25" y="35.5" width="14" height="3" rx="1.5" fill="#f0c040"/>
    <rect x="29.5" y="39" width="5" height="13" rx="1.5" fill="#6b3a1f"/>
    <rect x="30.5" y="39" width="3" height="13" fill="#8B4513"/>
    <circle cx="32" cy="54" r="3.2" fill="#d4a017"/>
    <circle cx="32" cy="54" r="2" fill="#f0c040"/>
  </g>
  <!-- Right sword -->
  <g transform="rotate(45 32 32)">
    <polygon points="30,2 34,2 32,0" fill="#e0e0e0"/>
    <rect x="30" y="2" width="4" height="34" rx="0.5" fill="#b0b8c4"/>
    <rect x="31" y="2" width="2" height="34" fill="#dce3ec"/>
    <rect x="23" y="35" width="18" height="4" rx="2" fill="#d4a017"/>
    <rect x="25" y="35.5" width="14" height="3" rx="1.5" fill="#f0c040"/>
    <rect x="29.5" y="39" width="5" height="13" rx="1.5" fill="#6b3a1f"/>
    <rect x="30.5" y="39" width="3" height="13" fill="#8B4513"/>
    <circle cx="32" cy="54" r="3.2" fill="#d4a017"/>
    <circle cx="32" cy="54" r="2" fill="#f0c040"/>
  </g>
</svg>
